<svg xmlns="http://www.w3.org/2000/svg" viewBox="0 0 320 96" role="img" aria-labelledby="title desc">
  <title id="title">EWaste Kochi</title>
  <desc id="desc">EWaste Kochi certified e-waste recycling and ITAD logo</desc>
  <rect width="320" height="96" rx="20" fill="#050908"/>
  <circle cx="48" cy="48" r="24" fill="#00E896" opacity="0.15"/>
  <path d="M58 31c-9-4-21 0-26 10-6 11-2 24 8 30l4-8c-5-3-8-9-5-15 3-6 10-9 16-7l-3 7 18-2-7-17-5 9z" fill="#00E896"/>
  <path d="M38 66c9 4 21 0 26-10 6-11 2-24-8-30l-4 8c5 3 8 9 5 15-3 6-10 9-16 7l3-7-18 2 7 17 5-9z" fill="#AAFF57"/>
  <text x="88" y="44" fill="#EBF5EF" font-family="Syne, Arial, sans-serif" font-size="24" font-weight="800">EWaste Kochi</text>
  <text x="88" y="68" fill="#8AB4A0" font-family="JetBrains Mono, monospace" font-size="12" letter-spacing="1.5">CERTIFIED ITAD • KERALA</text>
</svg>
